<svg  data-v-423bf9ae=""  xmlns="http://www.w3.org/2000/svg" viewBox="0 0 397 90" class="iconLeft"><!----><!----><!----><g data-v-423bf9ae="" id="63300ca1-f639-49be-a438-54272089eac4" fill="black" transform="matrix(5.459508284166465,0,0,5.459508284166465,105.25022433066701,7.356688413122477)"><path d="M4.73 4.62L4.73 4.62Q5.81 4.62 6.69 5.13L6.69 5.13L6.69 5.13Q7.56 5.64 8.07 6.53L8.07 6.53L8.07 6.53Q8.58 7.42 8.58 8.51L8.58 8.51L8.58 11.63L8.58 11.63Q8.58 11.94 8.38 12.14L8.38 12.14L8.38 12.14Q8.18 12.35 7.87 12.35L7.87 12.35L7.87 12.35Q7.56 12.35 7.36 12.14L7.36 12.14L7.36 12.14Q7.15 11.94 7.15 11.63L7.15 11.63L7.15 11.12L7.15 11.12Q6.66 11.72 5.96 12.05L5.96 12.05L5.96 12.05Q5.26 12.39 4.45 12.39L4.45 12.39L4.45 12.39Q3.44 12.39 2.63 11.89L2.63 11.89L2.63 11.89Q1.81 11.38 1.34 10.49L1.34 10.49L1.34 10.49Q0.87 9.60 0.87 8.51L0.87 8.51L0.87 8.51Q0.87 7.42 1.37 6.53L1.37 6.53L1.37 6.53Q1.88 5.64 2.77 5.13L2.77 5.13L2.77 5.13Q3.65 4.62 4.73 4.62L4.73 4.62ZM4.73 11.13L4.73 11.13Q5.43 11.13 6.00 10.79L6.00 10.79L6.00 10.79Q6.57 10.44 6.89 9.85L6.89 9.85L6.89 9.85Q7.21 9.25 7.21 8.51L7.21 8.51L7.21 8.51Q7.21 7.77 6.89 7.17L6.89 7.17L6.89 7.17Q6.57 6.57 6.00 6.22L6.00 6.22L6.00 6.22Q5.43 5.88 4.73 5.88L4.73 5.88L4.73 5.88Q4.03 5.88 3.46 6.22L3.46 6.22L3.46 6.22Q2.90 6.57 2.57 7.17L2.57 7.17L2.57 7.17Q2.24 7.77 2.24 8.51L2.24 8.51L2.24 8.51Q2.24 9.25 2.57 9.85L2.57 9.85L2.57 9.85Q2.90 10.44 3.46 10.79L3.46 10.79L3.46 10.79Q4.03 11.13 4.73 11.13L4.73 11.13ZM14.11 4.62L14.11 4.62Q15.76 4.62 16.86 5.88L16.86 5.88L16.86 5.88Q17.00 6.03 17.00 6.24L17.00 6.24L17.00 6.24Q17.00 6.55 16.69 6.76L16.69 6.76L16.69 6.76Q16.55 6.86 16.37 6.86L16.37 6.86L16.37 6.86Q16.04 6.86 15.82 6.61L15.82 6.61L15.82 6.61Q15.47 6.23 15.06 6.05L15.06 6.05L15.06 6.05Q14.64 5.88 14.11 5.88L14.11 5.88L14.11 5.88Q13.03 5.88 12.36 6.60L12.36 6.60L12.36 6.60Q11.69 7.32 11.69 8.51L11.69 8.51L11.69 8.51Q11.69 9.27 12.01 9.86L12.01 9.86L12.01 9.86Q12.32 10.46 12.89 10.79L12.89 10.79L12.89 10.79Q13.45 11.13 14.18 11.13L14.18 11.13L14.18 11.13Q15.13 11.13 15.72 10.64L15.72 10.64L15.72 10.64Q15.99 10.44 16.24 10.44L16.24 10.44L16.24 10.44Q16.44 10.44 16.60 10.57L16.60 10.57L16.60 10.57Q16.87 10.79 16.87 11.07L16.87 11.07L16.87 11.07Q16.87 11.28 16.70 11.45L16.70 11.45L16.70 11.45Q15.69 12.39 14.18 12.39L14.18 12.39L14.18 12.39Q13.08 12.39 12.19 11.89L12.19 11.89L12.19 11.89Q11.31 11.38 10.82 10.49L10.82 10.49L10.82 10.49Q10.32 9.60 10.32 8.51L10.32 8.51L10.32 8.51Q10.32 7.39 10.80 6.50L10.80 6.50L10.80 6.50Q11.28 5.61 12.15 5.12L12.15 5.12L12.15 5.12Q13.02 4.62 14.11 4.62L14.11 4.62ZM22.60 4.62L22.60 4.62Q23.67 4.62 24.55 5.13L24.55 5.13L24.55 5.13Q25.42 5.64 25.94 6.53L25.94 6.53L25.94 6.53Q26.45 7.42 26.45 8.51L26.45 8.51L26.45 11.63L26.45 11.63Q26.45 11.94 26.24 12.14L26.24 12.14L26.24 12.14Q26.04 12.35 25.73 12.35L25.73 12.35L25.73 12.35Q25.42 12.35 25.22 12.14L25.22 12.14L25.22 12.14Q25.02 11.94 25.02 11.63L25.02 11.63L25.02 11.12L25.02 11.12Q24.53 11.72 23.83 12.05L23.83 12.05L23.83 12.05Q23.13 12.39 22.32 12.39L22.32 12.39L22.32 12.39Q21.31 12.39 20.49 11.89L20.49 11.89L20.49 11.89Q19.67 11.38 19.20 10.49L19.20 10.49L19.20 10.49Q18.73 9.60 18.73 8.51L18.73 8.51L18.73 8.51Q18.73 7.42 19.24 6.53L19.24 6.53L19.24 6.53Q19.74 5.64 20.63 5.13L20.63 5.13L20.63 5.13Q21.52 4.62 22.60 4.62L22.60 4.62ZM22.60 11.13L22.60 11.13Q23.30 11.13 23.86 10.79L23.86 10.79L23.86 10.79Q24.43 10.44 24.75 9.85L24.75 9.85L24.75 9.85Q25.07 9.25 25.07 8.51L25.07 8.51L25.07 8.51Q25.07 7.77 24.75 7.17L24.75 7.17L24.75 7.17Q24.43 6.57 23.86 6.22L23.86 6.22L23.86 6.22Q23.30 5.88 22.60 5.88L22.60 5.88L22.60 5.88Q21.90 5.88 21.33 6.22L21.33 6.22L21.33 6.22Q20.76 6.57 20.43 7.17L20.43 7.17L20.43 7.17Q20.10 7.77 20.10 8.51L20.10 8.51L20.10 8.51Q20.10 9.25 20.43 9.85L20.43 9.85L20.43 9.85Q20.76 10.44 21.33 10.79L21.33 10.79L21.33 10.79Q21.90 11.13 22.60 11.13L22.60 11.13ZM35.18 1.40L35.18 1.40Q35.50 1.40 35.70 1.60L35.70 1.60L35.70 1.60Q35.90 1.79 35.90 2.11L35.90 2.11L35.90 8.50L35.90 8.50Q35.90 9.59 35.38 10.48L35.38 10.48L35.38 10.48Q34.87 11.37 34.00 11.88L34.00 11.88L34.00 11.88Q33.12 12.39 32.05 12.39L32.05 12.39L32.05 12.39Q30.97 12.39 30.08 11.88L30.08 11.88L30.08 11.88Q29.19 11.37 28.69 10.48L28.69 10.48L28.69 10.48Q28.18 9.59 28.18 8.50L28.18 8.50L28.18 8.50Q28.18 7.41 28.65 6.52L28.65 6.52L28.65 6.52Q29.12 5.63 29.94 5.12L29.94 5.12L29.94 5.12Q30.76 4.62 31.77 4.62L31.77 4.62L31.77 4.62Q32.58 4.62 33.28 4.96L33.28 4.96L33.28 4.96Q33.98 5.29 34.47 5.89L34.47 5.89L34.47 2.11L34.47 2.11Q34.47 1.79 34.67 1.60L34.67 1.60L34.67 1.60Q34.87 1.40 35.18 1.40L35.18 1.40ZM32.05 11.13L32.05 11.13Q32.75 11.13 33.31 10.79L33.31 10.79L33.31 10.79Q33.88 10.44 34.20 9.84L34.20 9.84L34.20 9.84Q34.52 9.24 34.52 8.50L34.52 8.50L34.52 8.50Q34.52 7.76 34.20 7.16L34.20 7.16L34.20 7.16Q33.88 6.57 33.31 6.22L33.31 6.22L33.31 6.22Q32.75 5.88 32.05 5.88L32.05 5.88L32.05 5.88Q31.35 5.88 30.78 6.22L30.78 6.22L30.78 6.22Q30.21 6.57 29.88 7.16L29.88 7.16L29.88 7.16Q29.55 7.76 29.55 8.50L29.55 8.50L29.55 8.50Q29.55 9.24 29.88 9.84L29.88 9.84L29.88 9.84Q30.21 10.44 30.78 10.79L30.78 10.79L30.78 10.79Q31.35 11.13 32.05 11.13L32.05 11.13ZM45.29 8.39L45.29 8.39Q45.29 8.65 45.11 8.83L45.11 8.83L45.11 8.83Q44.93 9.00 44.65 9.00L44.65 9.00L39.33 9.00L39.33 9.00Q39.48 9.98 40.21 10.58L40.21 10.58L40.21 10.58Q40.95 11.19 42.01 11.19L42.01 11.19L42.01 11.19Q42.43 11.19 42.89 11.03L42.89 11.03L42.89 11.03Q43.34 10.88 43.64 10.65L43.64 10.65L43.64 10.65Q43.83 10.50 44.10 10.50L44.10 10.50L44.10 10.50Q44.37 10.50 44.52 10.64L44.52 10.64L44.52 10.64Q44.77 10.85 44.77 11.12L44.77 11.12L44.77 11.12Q44.77 11.37 44.55 11.54L44.55 11.54L44.55 11.54Q44.07 11.91 43.37 12.15L43.37 12.15L43.37 12.15Q42.66 12.39 42.01 12.39L42.01 12.39L42.01 12.39Q40.87 12.39 39.96 11.89L39.96 11.89L39.96 11.89Q39.05 11.40 38.53 10.51L38.53 10.51L38.53 10.51Q38.02 9.63 38.02 8.51L38.02 8.51L38.02 8.51Q38.02 7.39 38.51 6.50L38.51 6.50L38.51 6.50Q38.99 5.61 39.85 5.12L39.85 5.12L39.85 5.12Q40.71 4.62 41.80 4.62L41.80 4.62L41.80 4.62Q42.88 4.62 43.67 5.10L43.67 5.10L43.67 5.10Q44.45 5.57 44.87 6.43L44.87 6.43L44.87 6.43Q45.29 7.28 45.29 8.39L45.29 8.39ZM41.80 5.82L41.80 5.82Q40.78 5.82 40.14 6.38L40.14 6.38L40.14 6.38Q39.51 6.94 39.34 7.88L39.34 7.88L44.00 7.88L44.00 7.88Q43.88 6.94 43.30 6.38L43.30 6.38L43.30 6.38Q42.73 5.82 41.80 5.82L41.80 5.82ZM50.51 4.62L50.51 4.62Q52.16 4.62 53.26 5.88L53.26 5.88L53.26 5.88Q53.40 6.03 53.40 6.24L53.40 6.24L53.40 6.24Q53.40 6.55 53.09 6.76L53.09 6.76L53.09 6.76Q52.95 6.86 52.77 6.86L52.77 6.86L52.77 6.86Q52.44 6.86 52.22 6.61L52.22 6.61L52.22 6.61Q51.87 6.23 51.46 6.05L51.46 6.05L51.46 6.05Q51.04 5.88 50.51 5.88L50.51 5.88L50.51 5.88Q49.43 5.88 48.76 6.60L48.76 6.60L48.76 6.60Q48.09 7.32 48.09 8.51L48.09 8.51L48.09 8.51Q48.09 9.27 48.41 9.86L48.41 9.86L48.41 9.86Q48.72 10.46 49.29 10.79L49.29 10.79L49.29 10.79Q49.85 11.13 50.58 11.13L50.58 11.13L50.58 11.13Q51.53 11.13 52.12 10.64L52.12 10.64L52.12 10.64Q52.39 10.44 52.64 10.44L52.64 10.44L52.64 10.44Q52.84 10.44 53.00 10.57L53.00 10.57L53.00 10.57Q53.27 10.79 53.27 11.07L53.27 11.07L53.27 11.07Q53.27 11.28 53.10 11.45L53.10 11.45L53.10 11.45Q52.09 12.39 50.58 12.39L50.58 12.39L50.58 12.39Q49.48 12.39 48.59 11.89L48.59 11.89L48.59 11.89Q47.71 11.38 47.22 10.49L47.22 10.49L47.22 10.49Q46.72 9.60 46.72 8.51L46.72 8.51L46.72 8.51Q46.72 7.39 47.20 6.50L47.20 6.50L47.20 6.50Q47.68 5.61 48.55 5.12L48.55 5.12L48.55 5.12Q49.42 4.62 50.51 4.62L50.51 4.62Z"></path></g><!----><g data-v-423bf9ae="" id="978f426c-0931-49ff-b2da-d2dca03272f2" transform="matrix(2.8125,0,0,2.8125,0,0)" stroke="none" fill="#005d9b"><path d="M16 1c8.271 0 15 6.729 15 15s-6.729 15-15 15S1 24.271 1 16 7.729 1 16 1m0-1C7.163 0 0 7.163 0 16s7.163 16 16 16 16-7.163 16-16S24.837 0 16 0z"></path><path d="M16 7.045L24.955 16 16 24.955 7.045 16 16 7.045m0-1.414L5.631 16 16 26.369 26.369 16 16 5.631z"></path><path d="M16 12.538L19.462 16 16 19.462 12.538 16 16 12.538m0-1.414L11.124 16 16 20.876 20.876 16 16 11.124z"></path></g><!----></svg>